<svg xmlns="http://www.w3.org/2000/svg" xmlns:xlink="http://www.w3.org/1999/xlink" version="1.1" width="1000" height="1000" viewBox="0 0 1000 1000" xml:space="preserve">
<desc>Created with Fabric.js 3.5.0</desc>
<defs>
</defs>
<rect x="0" y="0" width="100%" height="100%" fill="rgba(255,255,255,0)"/>
<g transform="matrix(0.7762 0 0 1.0845 490.413 528.6786)" id="39421">
<g style="" vector-effect="non-scaling-stroke">
		<g transform="matrix(0.1333 0 0 -0.1333 -429.0128 -92.0397)">
<path style="stroke: none; stroke-width: 1; stroke-dasharray: none; stroke-linecap: butt; stroke-dashoffset: 0; stroke-linejoin: miter; stroke-miterlimit: 4; is-custom-font: none; font-file-url: none; fill: rgb(0,0,0); fill-rule: nonzero; opacity: 1;" transform=" translate(-2207.4449, -2570)" d="M 2182 3740 c -20 -21 -126 -264 -136 -312 c -3 -15 12 -177 34 -360 c 104 -849 142 -1221 146 -1423 c 6 -233 9 -265 30 -265 c 20 0 59 90 78 183 c 51 246 47 585 -14 1202 c -16 165 -43 445 -60 622 c -27 289 -39 373 -54 373 c -3 0 -14 -9 -24 -20 z" stroke-linecap="round"/>
</g>
		<g transform="matrix(0.1333 0 0 -0.1333 -0.1805 -28.7009)">
<path style="stroke: none; stroke-width: 1; stroke-dasharray: none; stroke-linecap: butt; stroke-dashoffset: 0; stroke-linejoin: miter; stroke-miterlimit: 4; is-custom-font: none; font-file-url: none; fill: rgb(0,0,0); fill-rule: nonzero; opacity: 1;" transform=" translate(-5425, -2095)" d="M 10 2095 l 0 -1025 l 5415 0 l 5415 0 l 0 1025 l 0 1025 l -4261 0 c -4052 0 -4260 -1 -4257 -17 c 3 -17 214 -18 4241 -21 l 4237 -2 l 0 -985 l 0 -985 l -5375 0 l -5375 0 l 0 985 l 0 985 l 1000 0 c 993 0 1000 0 1000 20 c 0 20 -7 20 -1020 20 l -1020 0 l 0 -1025 z" stroke-linecap="round"/>
</g>
		<g transform="matrix(0.1333 0 0 -0.1333 -561.3498 -43.3512)">
<path style="stroke: none; stroke-width: 1; stroke-dasharray: none; stroke-linecap: butt; stroke-dashoffset: 0; stroke-linejoin: miter; stroke-miterlimit: 4; is-custom-font: none; font-file-url: none; fill: rgb(0,0,0); fill-rule: nonzero; opacity: 1;" transform=" translate(-1215, -2205)" d="M 1126 2732 c -3 -6 -256 -667 -382 -999 l -24 -63 l 103 0 l 102 0 l 144 405 c 80 223 148 402 151 398 c 4 -4 72 -187 151 -405 l 143 -398 l 98 0 l 98 0 l -13 33 c -7 17 -98 258 -203 534 l -189 503 l -87 0 c -48 0 -89 -3 -92 -8 z" stroke-linecap="round"/>
</g>
		<g transform="matrix(0.1333 0 0 -0.1333 -312.6696 -43.3512)">
<path style="stroke: none; stroke-width: 1; stroke-dasharray: none; stroke-linecap: butt; stroke-dashoffset: 0; stroke-linejoin: miter; stroke-miterlimit: 4; is-custom-font: none; font-file-url: none; fill: rgb(0,0,0); fill-rule: nonzero; opacity: 1;" transform=" translate(-3080, -2205)" d="M 2990 2205 l 0 -535 l 90 0 l 90 0 l 0 535 l 0 535 l -90 0 l -90 0 l 0 -535 z" stroke-linecap="round"/>
</g>
		<g transform="matrix(0.1333 0 0 -0.1333 -167.9449 -43.3512)">
<path style="stroke: none; stroke-width: 1; stroke-dasharray: none; stroke-linecap: butt; stroke-dashoffset: 0; stroke-linejoin: miter; stroke-miterlimit: 4; is-custom-font: none; font-file-url: none; fill: rgb(0,0,0); fill-rule: nonzero; opacity: 1;" transform=" translate(-4165.5, -2205)" d="M 3820 2205 l 0 -535 l 90 0 l 90 0 l 0 225 l 0 225 l 238 2 l 237 3 l 3 77 l 3 78 l -238 2 l -238 3 l -3 147 l -3 148 l 253 2 l 253 3 l 3 78 l 3 77 l -346 0 l -345 0 l 0 -535 z" stroke-linecap="round"/>
</g>
		<g transform="matrix(0.1333 0 0 -0.1333 68.0025 -43.2845)">
<path style="stroke: none; stroke-width: 1; stroke-dasharray: none; stroke-linecap: butt; stroke-dashoffset: 0; stroke-linejoin: miter; stroke-miterlimit: 4; is-custom-font: none; font-file-url: none; fill: rgb(0,0,0); fill-rule: nonzero; opacity: 1;" transform=" translate(-5935.1423, -2204.5)" d="M 5491 2613 c 27 -71 118 -310 203 -533 l 154 -405 l 89 -3 l 90 -3 l 198 523 c 109 288 200 529 203 536 c 3 10 -17 12 -94 10 l -98 -3 l -146 -402 c -80 -222 -147 -403 -150 -403 c -3 0 -70 182 -149 405 l -144 405 l -103 0 l -102 0 l 49 -127 z" stroke-linecap="round"/>
</g>
		<g transform="matrix(0.1333 0 0 -0.1333 203.9968 -43.3512)">
<path style="stroke: none; stroke-width: 1; stroke-dasharray: none; stroke-linecap: butt; stroke-dashoffset: 0; stroke-linejoin: miter; stroke-miterlimit: 4; is-custom-font: none; font-file-url: none; fill: rgb(0,0,0); fill-rule: nonzero; opacity: 1;" transform=" translate(-6955, -2205)" d="M 6860 2205 l 0 -535 l 95 0 l 95 0 l 0 535 l 0 535 l -95 0 l -95 0 l 0 -535 z" stroke-linecap="round"/>
</g>
		<g transform="matrix(0.1333 0 0 -0.1333 335.4543 -43.3284)">
<path style="stroke: none; stroke-width: 1; stroke-dasharray: none; stroke-linecap: butt; stroke-dashoffset: 0; stroke-linejoin: miter; stroke-miterlimit: 4; is-custom-font: none; font-file-url: none; fill: rgb(0,0,0); fill-rule: nonzero; opacity: 1;" transform=" translate(-7941, -2204.8296)" d="M 7570 2205 l 0 -535 l 359 0 c 407 0 364 -11 377 92 l 6 58 l -278 2 l -279 3 l -3 158 l -3 157 l 251 0 l 250 0 l 0 80 l 0 80 l -250 0 l -250 0 l 0 140 l 0 140 l 265 0 l 265 0 l 0 80 l 0 80 l -355 0 l -355 0 l 0 -535 z" stroke-linecap="round"/>
</g>
		<g transform="matrix(0.1333 0 0 -0.1333 529.1392 -43.3512)">
<path style="stroke: none; stroke-width: 1; stroke-dasharray: none; stroke-linecap: butt; stroke-dashoffset: 0; stroke-linejoin: miter; stroke-miterlimit: 4; is-custom-font: none; font-file-url: none; fill: rgb(0,0,0); fill-rule: nonzero; opacity: 1;" transform=" translate(-9393.7174, -2205)" d="M 8700 2733 c 0 -5 68 -245 152 -535 l 151 -528 l 88 0 c 75 0 88 3 93 18 c 3 9 51 194 106 411 c 55 217 102 396 103 398 c 2 2 48 -169 102 -380 c 54 -210 102 -397 107 -414 l 9 -33 l 92 0 l 92 0 l 144 523 c 79 287 146 528 148 535 c 4 9 -19 12 -94 12 l -99 0 l -94 -401 c -61 -256 -97 -394 -102 -382 c -7 18 -198 757 -198 768 c 0 3 -45 5 -100 5 l -99 0 l -10 -37 c -6 -21 -49 -193 -96 -383 c -47 -190 -88 -352 -91 -360 c -3 -8 -46 149 -95 350 c -49 201 -94 382 -100 403 l -10 37 l -99 0 c -55 0 -100 -3 -100 -7 z" stroke-linecap="round"/>
</g>
		<g transform="matrix(0.1333 0 0 -0.1333 577.2582 205.6549)">
<path style="stroke: none; stroke-width: 1; stroke-dasharray: none; stroke-linecap: butt; stroke-dashoffset: 0; stroke-linejoin: miter; stroke-miterlimit: 4; is-custom-font: none; font-file-url: none; fill: rgb(0,0,0); fill-rule: nonzero; opacity: 1;" transform=" translate(-9754.5, -337.511)" d="M 9627 347 c -70 -166 -127 -306 -127 -310 c 0 -5 12 -7 26 -5 c 24 3 31 14 64 98 l 36 95 l 124 0 l 124 0 l 36 -95 c 34 -91 37 -95 67 -98 l 32 -3 l -124 307 c -69 169 -126 308 -128 310 c -1 2 -60 -133 -130 -299 z m 177 60 c 25 -65 46 -121 46 -123 c 0 -2 -45 -4 -100 -4 c -55 0 -100 2 -100 4 c 0 1 19 50 43 107 c 24 57 47 113 50 123 c 4 10 9 17 11 15 c 2 -2 25 -57 50 -122 z" stroke-linecap="round"/>
</g>
		<g transform="matrix(0.1333 0 0 -0.1333 -550.2221 207.0825)">
<path style="stroke: none; stroke-width: 1; stroke-dasharray: none; stroke-linecap: butt; stroke-dashoffset: 0; stroke-linejoin: miter; stroke-miterlimit: 4; is-custom-font: none; font-file-url: none; fill: rgb(0,0,0); fill-rule: nonzero; opacity: 1;" transform=" translate(-1298.4117, -326.8049)" d="M 1027 347 c -21 -160 -38 -298 -37 -304 c 0 -7 11 -13 24 -13 c 29 0 29 -1 52 253 c 10 103 21 184 25 180 c 4 -5 49 -102 99 -218 c 51 -116 95 -216 99 -223 c 4 -8 46 75 106 210 c 101 230 115 256 115 223 c 0 -11 9 -108 20 -215 c 11 -107 20 -198 20 -202 c 0 -5 14 -8 30 -8 c 26 0 30 3 25 23 c -2 12 -18 137 -35 277 c -17 140 -34 268 -38 284 c -7 26 -20 1 -121 -228 c -71 -159 -117 -252 -122 -244 c -4 7 -53 119 -109 248 c -56 129 -105 238 -109 242 c -4 5 -24 -124 -44 -285 z" stroke-linecap="round"/>
</g>
		<g transform="matrix(0.1333 0 0 -0.1333 -252.6716 206.59)">
<path style="stroke: none; stroke-width: 1; stroke-dasharray: none; stroke-linecap: butt; stroke-dashoffset: 0; stroke-linejoin: miter; stroke-miterlimit: 4; is-custom-font: none; font-file-url: none; fill: rgb(0,0,0); fill-rule: nonzero; opacity: 1;" transform=" translate(-3530, -330.5)" d="M 3380 330 l 0 -300 l 150 0 l 150 0 l 0 25 l 0 25 l -120 0 l -120 0 l 0 130 l 0 130 l 120 0 l 120 0 l 0 25 l 0 25 l -120 0 l -120 0 l 0 95 l 0 95 l 121 0 c 119 0 120 0 117 23 c -3 22 -6 22 -150 25 l -148 3 l 0 -301 z" stroke-linecap="round"/>
</g>
		<g transform="matrix(0.1333 0 0 -0.1333 36.5444 206.6565)">
<path style="stroke: none; stroke-width: 1; stroke-dasharray: none; stroke-linecap: butt; stroke-dashoffset: 0; stroke-linejoin: miter; stroke-miterlimit: 4; is-custom-font: none; font-file-url: none; fill: rgb(0,0,0); fill-rule: nonzero; opacity: 1;" transform=" translate(-5699.1403, -330)" d="M 5470 330 l 0 -303 l 128 6 c 146 7 187 18 241 63 c 101 87 120 298 38 421 c -52 78 -111 101 -274 109 l -133 7 l 0 -303 z m 262 238 c 54 -16 113 -84 128 -149 c 26 -109 -1 -229 -67 -292 c -39 -36 -80 -47 -185 -47 l -88 0 l 0 250 l 0 250 l 86 0 c 48 0 104 -5 126 -12 z" stroke-linecap="round"/>
</g>
		<g transform="matrix(0.1333 0 0 -0.1333 308.6657 206.59)">
<path style="stroke: none; stroke-width: 1; stroke-dasharray: none; stroke-linecap: butt; stroke-dashoffset: 0; stroke-linejoin: miter; stroke-miterlimit: 4; is-custom-font: none; font-file-url: none; fill: rgb(0,0,0); fill-rule: nonzero; opacity: 1;" transform=" translate(-7740, -330.5)" d="M 7710 331 l 0 -301 l 30 0 l 30 0 l -2 298 l -3 297 l -27 3 l -28 3 l 0 -300 z" stroke-linecap="round"/>
</g>
</g>
</g>
</svg>